<svg width="25" height="30" viewBox="0 0 25 30" fill="none" xmlns="http://www.w3.org/2000/svg">
<path fill-rule="evenodd" clip-rule="evenodd" d="M21.5625 7.5H2.8125C2.295 7.5 1.875 7.08094 1.875 6.5625C1.875 6.045 2.295 5.625 2.8125 5.625H21.5625C22.08 5.625 22.5 6.045 22.5 6.5625C22.5 7.08094 22.08 7.5 21.5625 7.5ZM20.625 26.25C20.625 27.285 19.785 28.125 18.75 28.125H5.625C4.59 28.125 3.75 27.285 3.75 26.25V9.375H20.625V26.25ZM9.375 2.8125C9.375 2.29406 9.795 1.875 10.3125 1.875H14.0625C14.58 1.875 15 2.29406 15 2.8125V3.75H9.375V2.8125ZM22.5 3.75H16.875V1.875C16.875 0.84 16.035 0 15 0H9.375C8.34 0 7.5 0.84 7.5 1.875V3.75H1.875C0.84 3.75 0 4.59 0 5.625V7.5C0 8.535 0.84 9.375 1.875 9.375V26.25C1.875 28.3209 3.55406 30 5.625 30H18.75C20.8209 30 22.5 28.3209 22.5 26.25V9.375C23.535 9.375 24.375 8.535 24.375 7.5V5.625C24.375 4.59 23.535 3.75 22.5 3.75ZM12.1875 26.25C12.705 26.25 13.125 25.8309 13.125 25.3125V14.0625C13.125 13.545 12.705 13.125 12.1875 13.125C11.67 13.125 11.25 13.545 11.25 14.0625V25.3125C11.25 25.8309 11.67 26.25 12.1875 26.25ZM7.5 26.25C8.0175 26.25 8.4375 25.8309 8.4375 25.3125V14.0625C8.4375 13.545 8.0175 13.125 7.5 13.125C6.9825 13.125 6.5625 13.545 6.5625 14.0625V25.3125C6.5625 25.8309 6.9825 26.25 7.5 26.25ZM16.875 26.25C17.3925 26.25 17.8125 25.8309 17.8125 25.3125V14.0625C17.8125 13.545 17.3925 13.125 16.875 13.125C16.3575 13.125 15.9375 13.545 15.9375 14.0625V25.3125C15.9375 25.8309 16.3575 26.25 16.875 26.25Z" fill="#B96D6D"/>
</svg>
